<?xml version="1.0" standalone="no"?><!DOCTYPE svg PUBLIC "-//W3C//DTD SVG 1.1//EN" "http://www.w3.org/Graphics/SVG/1.1/DTD/svg11.dtd"><svg t="1637131266996" class="icon" viewBox="0 0 1024 1024" version="1.1" xmlns="http://www.w3.org/2000/svg" p-id="12513" xmlns:xlink="http://www.w3.org/1999/xlink" width="200" height="200"><defs><style type="text/css"></style></defs><path d="M467.911111 775.68h-2.56 2.56z m-4.835555-1.991111z m-1.991112 0z m6.826667 2.844444a62.008889 62.008889 0 0 0 21.333333 3.413334 60.871111 60.871111 0 0 1-21.333333-3.413334z m23.608889 3.128889z m2.275556 0z m43.804444-30.151111z m0 0" fill="#FFFFFF" p-id="12514"></path><path d="M956.586667 339.626667a44.942222 44.942222 0 0 0-69.973334-56.888889c-122.595556 152.462222-245.191111 227.555556-368.071111 227.555555s-250.88-74.808889-382.862222-227.555555a44.657778 44.657778 0 0 0-76.231111 14.506666A43.804444 43.804444 0 0 0 67.697778 341.333333a1067.235556 1067.235556 0 0 0 127.715555 126.577778l-83.626666 96.426667a31.857778 31.857778 0 1 0 48.355555 41.813333l85.333334-98.702222v-1.422222a573.44 573.44 0 0 0 127.146666 67.413333 26.168889 26.168889 0 0 0-3.982222 7.964444l-34.133333 136.533334a32.142222 32.142222 0 0 0 62.293333 15.644444l34.133333-136.533333a52.622222 52.622222 0 0 0 0-6.542222 395.377778 395.377778 0 0 0 185.457778-3.413334l48.071111 136.533334a31.857778 31.857778 0 0 0 60.302222-21.333334l-47.502222-135.395555a553.528889 553.528889 0 0 0 131.128889-78.791111L890.595556 568.888889a31.857778 31.857778 0 0 0 45.226666-45.226667l-77.653333-77.937778a1004.373333 1004.373333 0 0 0 98.417778-106.097777z" fill="black" p-id="12515"></path></svg>