<?xml version="1.0" standalone="no"?><!DOCTYPE svg PUBLIC "-//W3C//DTD SVG 1.1//EN" "http://www.w3.org/Graphics/SVG/1.1/DTD/svg11.dtd"><svg t="1637131249309" class="icon" viewBox="0 0 1024 1024" version="1.1" xmlns="http://www.w3.org/2000/svg" p-id="12365" xmlns:xlink="http://www.w3.org/1999/xlink" width="200" height="200"><defs><style type="text/css"></style></defs><path d="M512 512m-512 0a512 512 0 1 0 1024 0 512 512 0 1 0-1024 0Z" fill="#DBDBDB" p-id="12366"></path><path d="M721.454545 337.454545a209.454545 209.454545 0 1 0-256 204.101819V802.909091l93.09091 93.090909 93.090909-93.090909-69.818182-69.818182 69.818182-69.818182-93.090909-93.090909v-28.625454a209.454545 209.454545 0 0 0 162.90909-204.101819z m-209.454545-116.363636a46.545455 46.545455 0 1 1-46.545455 46.545455 46.545455 46.545455 0 0 1 46.545455-46.545455z" fill="#8E8E8E" p-id="12367"></path></svg>